# xmcd CD database file
#
# Track frame offsets:
#	225
#	22265
#	40510
#	54488
#	70390
#	98162
#	117781
#	142265
#	160902
#	174982
#	190537
#
# Disc length: 2792 seconds
#
# Revision: 0
# Processed by: cddbd v1.5.1PL0 Copyright (c) Steve Scherf et al.
# Submitted via: CDex 1.51
#
DISCID=930ae50b
DTITLE=POSSUM HOLER - OUT ON A LIMB
DYEAR=2001
DGENRE=Country
TTITLE0=SAY IT AGAIN
TTITLE1=IF NO ONE EVER DOES
TTITLE2=DIDN'T TAKE TOO LONG
TTITLE3=DO YOU SEE FOOL
TTITLE4=THIS EMPTY HOUSE
TTITLE5=JESSIE
TTITLE6=RAININ' IN OCTOBER
TTITLE7=SO MUCH MORE THAN THIS
TTITLE8=I'M THE ONE
TTITLE9=ALONE AGAINST THE SKY
TTITLE10=OUT ON A LIMB
EXTD=YEAR: 2001
EXTT0=
EXTT1=
EXTT2=
EXTT3=
EXTT4=
EXTT5=
EXTT6=
EXTT7=
EXTT8=
EXTT9=
EXTT10=
PLAYORDER=
